<svg xmlns="http://www.w3.org/2000/svg" width="128" height="128" viewBox="0 0 128 128">
  <defs>
    <linearGradient id="bgM2" x1="0" y1="0" x2="1" y2="1">
      <stop offset="0" stop-color="#ECFEFF"/>
      <stop offset="1" stop-color="#F0FDFA"/>
    </linearGradient>
    <linearGradient id="basket" x1="0" y1="0" x2="1" y2="1">
      <stop offset="0" stop-color="#22C55E"/>
      <stop offset="1" stop-color="#16A34A"/>
    </linearGradient>
    <linearGradient id="handle" x1="0" y1="0" x2="0" y2="1">
      <stop offset="0" stop-color="#0EA5E9"/>
      <stop offset="1" stop-color="#2563EB"/>
    </linearGradient>
  </defs>

  <rect x="10" y="10" width="108" height="108" rx="26" fill="url(#bgM2)"/>

  <!-- handle -->
  <path d="M44 54c0-12 8-22 20-22s20 10 20 22" fill="none" stroke="url(#handle)" stroke-width="10" stroke-linecap="round"/>
  <!-- basket body -->
  <path d="M34 58h60l-6 46a10 10 0 0 1-10 9H50a10 10 0 0 1-10-9l-6-46z" fill="url(#basket)"/>
  <!-- basket holes -->
  <g fill="#0B5F2D" opacity="0.25">
    <circle cx="48" cy="76" r="4"/><circle cx="64" cy="76" r="4"/><circle cx="80" cy="76" r="4"/>
    <circle cx="48" cy="92" r="4"/><circle cx="64" cy="92" r="4"/><circle cx="80" cy="92" r="4"/>
  </g>

  <!-- items -->
  <circle cx="78" cy="50" r="10" fill="#F97316"/>
  <path d="M74 44c4-6 10-6 14 0" fill="none" stroke="#16A34A" stroke-width="4" stroke-linecap="round"/>
  <circle cx="52" cy="52" r="9" fill="#EF4444"/>
  <path d="M50 44c2 2 6 2 8 0" fill="none" stroke="#16A34A" stroke-width="4" stroke-linecap="round"/>
</svg>
