<svg xmlns="http://www.w3.org/2000/svg" width="128" height="128" viewBox="0 0 128 128">
  <defs>
    <linearGradient id="bgT" x1="0" y1="0" x2="1" y2="1">
      <stop offset="0" stop-color="#EEF2FF"/>
      <stop offset="1" stop-color="#F8FAFC"/>
    </linearGradient>
    <linearGradient id="cab" x1="0" y1="0" x2="1" y2="1">
      <stop offset="0" stop-color="#38BDF8"/>
      <stop offset="1" stop-color="#2563EB"/>
    </linearGradient>
    <linearGradient id="box" x1="0" y1="0" x2="1" y2="1">
      <stop offset="0" stop-color="#FFFFFF"/>
      <stop offset="1" stop-color="#E5E7EB"/>
    </linearGradient>
  </defs>

  <rect x="10" y="10" width="108" height="108" rx="26" fill="url(#bgT)"/>

  <!-- cargo box -->
  <rect x="30" y="50" width="44" height="30" rx="6" fill="url(#box)" stroke="#CBD5E1" stroke-width="3"/>
  <!-- cab -->
  <path d="M74 80V56a6 6 0 0 1 6-6h14a6 6 0 0 1 6 6v24H74z" fill="url(#cab)"/>
  <!-- window -->
  <path d="M82 56h14a4 4 0 0 1 4 4v8H82v-12z" fill="#0F172A" opacity="0.25"/>
  <!-- bumper -->
  <rect x="30" y="80" width="70" height="8" rx="4" fill="#64748B" opacity="0.5"/>

  <!-- wheels -->
  <circle cx="46" cy="92" r="10" fill="#111827" opacity="0.9"/>
  <circle cx="46" cy="92" r="5" fill="#E5E7EB"/>
  <circle cx="88" cy="92" r="10" fill="#111827" opacity="0.9"/>
  <circle cx="88" cy="92" r="5" fill="#E5E7EB"/>
</svg>
